<?xml version="1.0" standalone="no"?>
<!DOCTYPE svg PUBLIC "-//W3C//DTD SVG 20010904//EN"
 "http://www.w3.org/TR/2001/REC-SVG-20010904/DTD/svg10.dtd">
<svg version="1.0" xmlns="http://www.w3.org/2000/svg"
 width="64.000000pt" height="64.000000pt" viewBox="0 0 64.000000 64.000000"
 preserveAspectRatio="xMidYMid meet">

<g transform="translate(0.000000,64.000000) scale(0.100000,-0.100000)"
fill="#000000" stroke="none">
<path d="M16 112 c-8 -25 1 -62 15 -62 5 0 9 4 9 9 0 5 2 15 5 23 3 7 -1 22
-9 33 -13 18 -14 18 -20 -3z"/>
<path d="M97 124 c-11 -11 -8 -62 4 -69 12 -8 15 -6 23 21 7 21 -15 60 -27 48z"/>
<path d="M517 124 c-11 -11 -8 -62 4 -69 12 -8 15 -6 23 21 7 21 -15 60 -27
48z"/>
<path d="M596 112 c-8 -25 1 -62 15 -62 5 0 9 4 9 9 0 5 2 15 5 23 3 7 -1 22
-9 33 -13 18 -14 18 -20 -3z"/>
<path d="M280 75 c0 -10 -10 -15 -34 -15 -31 0 -66 -23 -53 -36 4 -5 135 -7
230 -5 31 1 37 26 8 36 -11 3 -22 12 -25 20 -8 22 -126 21 -126 0z"/>
</g>
</svg>
